<svg xmlns="http://www.w3.org/2000/svg" width="18" height="16" fill="none"><script xmlns=""/><g clip-path="url(#a)"><path d="M16.94 6.031a1.214 1.214 0 0 0-.394-.587 1.14 1.14 0 0 0-.644-.255l-4.242-.308-1.574-4.11a1.204 1.204 0 0 0-.428-.56A1.137 1.137 0 0 0 8.999 0c-.235 0-.464.074-.658.212a1.203 1.203 0 0 0-.427.56L6.317 4.904l-4.219.284a1.148 1.148 0 0 0-.644.255 1.28 1.28 0 0 0-.408 1.315c.065.239.199.451.383.61l3.245 2.845-.965 3.939a1.41 1.41 0 0 0 .035.803c.09.258.252.482.466.642a1.24 1.24 0 0 0 1.433.046l3.348-2.2c.004-.003.008-.005.018 0l3.603 2.368a1.122 1.122 0 0 0 1.3-.042 1.23 1.23 0 0 0 .422-.582 1.28 1.28 0 0 0 .032-.728l-1.025-4.302 3.23-2.789a1.24 1.24 0 0 0 .383-.61 1.28 1.28 0 0 0-.015-.728Z" fill="#F4900E"/></g><defs><clipPath id="a"><path fill="#fff" d="M0 0h18v16H0z"/></clipPath></defs></svg>